<?xml version="1.0" encoding="UTF-8" standalone="no"?>
<!DOCTYPE svg PUBLIC "-//W3C//DTD SVG 1.1//EN"
 "http://www.w3.org/Graphics/SVG/1.1/DTD/svg11.dtd">
<!-- Generated by graphviz version 2.43.0 (0)
 -->
<!-- Title: G Pages: 1 -->
<svg width="790pt" height="608pt"
 viewBox="0.00 0.00 790.03 608.28" xmlns="http://www.w3.org/2000/svg" xmlns:xlink="http://www.w3.org/1999/xlink">
<g id="graph0" class="graph" transform="scale(1 1) rotate(0) translate(4 604.28)">
<title>G</title><style>.edge>path:hover{stroke-width:8}</style>
<polygon fill="white" stroke="transparent" points="-4,4 -4,-604.28 786.03,-604.28 786.03,4 -4,4"/>
<!-- notes_app_controller_notes_controller -->
<g id="node1" class="node">
<title>notes_app_controller_notes_controller</title><style>.edge>path:hover{stroke-width:8}</style>
<ellipse fill="#3838a8" stroke="black" cx="435.32" cy="-130.21" rx="67.35" ry="21.43"/>
<text text-anchor="middle" x="435.32" y="-133.21" font-family="Helvetica,sans-Serif" font-size="10.00" fill="#ffffff">controller.</text>
<text text-anchor="middle" x="435.32" y="-122.21" font-family="Helvetica,sans-Serif" font-size="10.00" fill="#ffffff">notes_controller</text>
</g>
<!-- notes_app_main -->
<g id="node2" class="node">
<title>notes_app_main</title><style>.edge>path:hover{stroke-width:8}</style>
<ellipse fill="#2e2e6b" stroke="black" cx="699.32" cy="-18" rx="27" ry="18"/>
<text text-anchor="middle" x="699.32" y="-15.5" font-family="Helvetica,sans-Serif" font-size="10.00" fill="#ffffff">main</text>
</g>
<!-- notes_app_controller_notes_controller&#45;&gt;notes_app_main -->
<g id="edge6" class="edge">
<title>notes_app_controller_notes_controller&#45;&gt;notes_app_main</title><style>.edge>path:hover{stroke-width:8}</style>
<path fill="none" stroke="black" d="M484.25,-115.65C493.23,-113.32 502.53,-111.01 511.32,-109 552.79,-99.53 680.2,-111 699.32,-73"/>
<path fill="none" stroke="black" d="M699.32,-72C703.26,-64.17 704.27,-54.83 703.98,-46.18"/>
<polygon fill="#3838a8" stroke="black" points="707.46,-45.79 703.1,-36.13 700.48,-46.4 707.46,-45.79"/>
</g>
<!-- notes_app_model_notes_model -->
<g id="node3" class="node">
<title>notes_app_model_notes_model</title><style>.edge>path:hover{stroke-width:8}</style>
<ellipse fill="#3838a8" stroke="black" cx="577.32" cy="-130.21" rx="56.64" ry="21.43"/>
<text text-anchor="middle" x="577.32" y="-133.21" font-family="Helvetica,sans-Serif" font-size="10.00" fill="#ffffff">model.</text>
<text text-anchor="middle" x="577.32" y="-122.21" font-family="Helvetica,sans-Serif" font-size="10.00" fill="#ffffff">notes_model</text>
</g>
<!-- notes_app_model_notes_model&#45;&gt;notes_app_main -->
<g id="edge7" class="edge">
<title>notes_app_model_notes_model&#45;&gt;notes_app_main</title><style>.edge>path:hover{stroke-width:8}</style>
<path fill="none" stroke="black" d="M619.67,-115.98C651.73,-104.91 691.54,-88.47 699.32,-73"/>
</g>
<!-- notes_app_observer_notes_observer -->
<g id="node4" class="node">
<title>notes_app_observer_notes_observer</title><style>.edge>path:hover{stroke-width:8}</style>
<ellipse fill="#4747c2" stroke="black" cx="597.32" cy="-361.07" rx="65.11" ry="21.43"/>
<text text-anchor="middle" x="597.32" y="-364.07" font-family="Helvetica,sans-Serif" font-size="10.00" fill="#ffffff">observer.</text>
<text text-anchor="middle" x="597.32" y="-353.07" font-family="Helvetica,sans-Serif" font-size="10.00" fill="#ffffff">notes_observer</text>
</g>
<!-- notes_app_view_notes_view -->
<g id="node15" class="node">
<title>notes_app_view_notes_view</title><style>.edge>path:hover{stroke-width:8}</style>
<ellipse fill="#262673" stroke="black" cx="443.32" cy="-245.64" rx="50.82" ry="21.43"/>
<text text-anchor="middle" x="443.32" y="-248.64" font-family="Helvetica,sans-Serif" font-size="10.00" fill="#ffffff">view.</text>
<text text-anchor="middle" x="443.32" y="-237.64" font-family="Helvetica,sans-Serif" font-size="10.00" fill="#ffffff">notes_view</text>
</g>
<!-- notes_app_observer_notes_observer&#45;&gt;notes_app_view_notes_view -->
<g id="edge8" class="edge">
<title>notes_app_observer_notes_observer&#45;&gt;notes_app_view_notes_view</title><style>.edge>path:hover{stroke-width:8}</style>
<path fill="none" stroke="black" d="M549.31,-346.72C493.07,-330.94 407.78,-306.47 410.32,-303.85"/>
</g>
<!-- notes_app_utils_color -->
<g id="node5" class="node">
<title>notes_app_utils_color</title><style>.edge>path:hover{stroke-width:8}</style>
<ellipse fill="#4747c2" stroke="black" cx="476.32" cy="-361.07" rx="38.03" ry="18"/>
<text text-anchor="middle" x="476.32" y="-358.57" font-family="Helvetica,sans-Serif" font-size="10.00" fill="#ffffff">utils.color</text>
</g>
<!-- notes_app_utils_color&#45;&gt;notes_app_view_notes_view -->
<g id="edge9" class="edge">
<title>notes_app_utils_color&#45;&gt;notes_app_view_notes_view</title><style>.edge>path:hover{stroke-width:8}</style>
<path fill="none" stroke="black" d="M447.42,-349.15C422.77,-338.32 393.74,-320.9 410.32,-303.85"/>
</g>
<!-- notes_app_utils_diff -->
<g id="node6" class="node">
<title>notes_app_utils_diff</title><style>.edge>path:hover{stroke-width:8}</style>
<ellipse fill="#4747c2" stroke="black" cx="341.32" cy="-245.64" rx="32.93" ry="18"/>
<text text-anchor="middle" x="341.32" y="-243.14" font-family="Helvetica,sans-Serif" font-size="10.00" fill="#ffffff">utils.diff</text>
</g>
<!-- notes_app_utils_diff&#45;&gt;notes_app_controller_notes_controller -->
<g id="edge10" class="edge">
<title>notes_app_utils_diff&#45;&gt;notes_app_controller_notes_controller</title><style>.edge>path:hover{stroke-width:8}</style>
<path fill="none" stroke="black" d="M364.68,-232.72C391.68,-218.63 432.76,-196.14 435.32,-188.43"/>
<path fill="none" stroke="black" d="M435.32,-187.43C438.03,-179.26 438.87,-170.05 438.81,-161.49"/>
<polygon fill="#4747c2" stroke="black" points="442.31,-161.31 438.36,-151.48 435.31,-161.62 442.31,-161.31"/>
</g>
<!-- notes_app_utils_file -->
<g id="node7" class="node">
<title>notes_app_utils_file</title><style>.edge>path:hover{stroke-width:8}</style>
<ellipse fill="#3b3bce" stroke="black" cx="713.32" cy="-361.07" rx="32.93" ry="18"/>
<text text-anchor="middle" x="713.32" y="-358.57" font-family="Helvetica,sans-Serif" font-size="10.00" fill="#ffffff">utils.file</text>
</g>
<!-- notes_app_utils_file&#45;&gt;notes_app_model_notes_model -->
<g id="edge11" class="edge">
<title>notes_app_utils_file&#45;&gt;notes_app_model_notes_model</title><style>.edge>path:hover{stroke-width:8}</style>
<path fill="none" stroke="black" d="M709.32,-302.85C679.97,-261.32 725.46,-236.65 709.32,-188.43"/>
</g>
<!-- notes_app_utils_file&#45;&gt;notes_app_view_notes_view -->
<g id="edge12" class="edge">
<title>notes_app_utils_file&#45;&gt;notes_app_view_notes_view</title><style>.edge>path:hover{stroke-width:8}</style>
<path fill="none" stroke="black" d="M716.44,-343.05C717.69,-331.03 717.28,-315.12 709.32,-303.85"/>
<path fill="none" stroke="black" d="M709.32,-302.85C683,-265.62 551.6,-277.74 507.32,-266.85 502.09,-265.57 496.66,-264.08 491.27,-262.52"/>
<polygon fill="#3b3bce" stroke="black" points="492.26,-259.16 481.67,-259.64 490.24,-265.87 492.26,-259.16"/>
</g>
<!-- notes_app_utils_font -->
<g id="node8" class="node">
<title>notes_app_utils_font</title><style>.edge>path:hover{stroke-width:8}</style>
<ellipse fill="#4747c2" stroke="black" cx="35.32" cy="-361.07" rx="35.14" ry="18"/>
<text text-anchor="middle" x="35.32" y="-358.57" font-family="Helvetica,sans-Serif" font-size="10.00" fill="#ffffff">utils.font</text>
</g>
<!-- notes_app_utils_font&#45;&gt;notes_app_view_notes_view -->
<g id="edge13" class="edge">
<title>notes_app_utils_font&#45;&gt;notes_app_view_notes_view</title><style>.edge>path:hover{stroke-width:8}</style>
<path fill="none" stroke="black" d="M59,-347.5C65.44,-344.56 72.51,-341.73 79.32,-339.85 150.64,-320.15 358.73,-356.89 410.32,-303.85"/>
<path fill="none" stroke="black" d="M410.32,-302.85C417.95,-295 424.53,-285.06 429.76,-275.72"/>
<polygon fill="#4747c2" stroke="black" points="432.95,-277.17 434.53,-266.69 426.76,-273.9 432.95,-277.17"/>
</g>
<!-- notes_app_utils_mark -->
<g id="node9" class="node">
<title>notes_app_utils_mark</title><style>.edge>path:hover{stroke-width:8}</style>
<ellipse fill="#4747c2" stroke="black" cx="127.32" cy="-361.07" rx="38.7" ry="18"/>
<text text-anchor="middle" x="127.32" y="-358.57" font-family="Helvetica,sans-Serif" font-size="10.00" fill="#ffffff">utils.mark</text>
</g>
<!-- notes_app_utils_mark&#45;&gt;notes_app_view_notes_view -->
<g id="edge14" class="edge">
<title>notes_app_utils_mark&#45;&gt;notes_app_view_notes_view</title><style>.edge>path:hover{stroke-width:8}</style>
<path fill="none" stroke="black" d="M153.56,-347.64C160.51,-344.73 168.1,-341.89 175.32,-339.85 226.16,-325.49 373.49,-341.73 410.32,-303.85"/>
</g>
<!-- notes_app_utils_path -->
<g id="node10" class="node">
<title>notes_app_utils_path</title><style>.edge>path:hover{stroke-width:8}</style>
<ellipse fill="#3b3bce" stroke="black" cx="552.32" cy="-245.64" rx="36.49" ry="18"/>
<text text-anchor="middle" x="552.32" y="-243.14" font-family="Helvetica,sans-Serif" font-size="10.00" fill="#ffffff">utils.path</text>
</g>
<!-- notes_app_utils_path&#45;&gt;notes_app_controller_notes_controller -->
<g id="edge15" class="edge">
<title>notes_app_utils_path&#45;&gt;notes_app_controller_notes_controller</title><style>.edge>path:hover{stroke-width:8}</style>
<path fill="none" stroke="black" d="M560.76,-227.78C565.27,-216.54 569.18,-201.49 565.32,-188.43"/>
<path fill="none" stroke="black" d="M565.32,-187.43C560.79,-172.09 527.31,-157.83 495.47,-147.51"/>
<polygon fill="#3b3bce" stroke="black" points="496.26,-144.09 485.67,-144.44 494.17,-150.77 496.26,-144.09"/>
</g>
<!-- notes_app_utils_path&#45;&gt;notes_app_model_notes_model -->
<g id="edge16" class="edge">
<title>notes_app_utils_path&#45;&gt;notes_app_model_notes_model</title><style>.edge>path:hover{stroke-width:8}</style>
<path fill="none" stroke="black" d="M565.32,-187.43C562.8,-178.9 563.49,-169.49 565.46,-160.86"/>
<polygon fill="#3b3bce" stroke="black" points="568.84,-161.75 568.24,-151.17 562.11,-159.82 568.84,-161.75"/>
</g>
<!-- notes_app_utils_search -->
<g id="node11" class="node">
<title>notes_app_utils_search</title><style>.edge>path:hover{stroke-width:8}</style>
<ellipse fill="#4747c2" stroke="black" cx="227.32" cy="-361.07" rx="42.94" ry="18"/>
<text text-anchor="middle" x="227.32" y="-358.57" font-family="Helvetica,sans-Serif" font-size="10.00" fill="#ffffff">utils.search</text>
</g>
<!-- notes_app_utils_search&#45;&gt;notes_app_view_notes_view -->
<g id="edge17" class="edge">
<title>notes_app_utils_search&#45;&gt;notes_app_view_notes_view</title><style>.edge>path:hover{stroke-width:8}</style>
<path fill="none" stroke="black" d="M257.1,-347.89C264.32,-345.1 272.06,-342.26 279.32,-339.85 336.65,-320.89 368.22,-347.14 410.32,-303.85"/>
</g>
<!-- notes_app_utils_settings -->
<g id="node12" class="node">
<title>notes_app_utils_settings</title><style>.edge>path:hover{stroke-width:8}</style>
<ellipse fill="#4747c2" stroke="black" cx="699.32" cy="-130.21" rx="47.19" ry="18"/>
<text text-anchor="middle" x="699.32" y="-127.71" font-family="Helvetica,sans-Serif" font-size="10.00" fill="#ffffff">utils.settings</text>
</g>
<!-- notes_app_utils_settings&#45;&gt;notes_app_main -->
<g id="edge18" class="edge">
<title>notes_app_utils_settings&#45;&gt;notes_app_main</title><style>.edge>path:hover{stroke-width:8}</style>
<path fill="none" stroke="black" d="M695.46,-112.06C693.74,-100.43 693.27,-85.03 699.32,-73"/>
</g>
<!-- notes_app_utils_text_input -->
<g id="node13" class="node">
<title>notes_app_utils_text_input</title><style>.edge>path:hover{stroke-width:8}</style>
<ellipse fill="#4747c2" stroke="black" cx="335.32" cy="-361.07" rx="46.84" ry="21.43"/>
<text text-anchor="middle" x="335.32" y="-364.07" font-family="Helvetica,sans-Serif" font-size="10.00" fill="#ffffff">utils.</text>
<text text-anchor="middle" x="335.32" y="-353.07" font-family="Helvetica,sans-Serif" font-size="10.00" fill="#ffffff">text_input</text>
</g>
<!-- notes_app_utils_text_input&#45;&gt;notes_app_view_notes_view -->
<g id="edge19" class="edge">
<title>notes_app_utils_text_input&#45;&gt;notes_app_view_notes_view</title><style>.edge>path:hover{stroke-width:8}</style>
<path fill="none" stroke="black" d="M361.57,-343.4C376.76,-333.06 395.68,-318.9 410.32,-303.85"/>
</g>
<!-- notes_app_utils_time -->
<g id="node14" class="node">
<title>notes_app_utils_time</title><style>.edge>path:hover{stroke-width:8}</style>
<ellipse fill="#4747c2" stroke="black" cx="644.32" cy="-245.64" rx="37.17" ry="18"/>
<text text-anchor="middle" x="644.32" y="-243.14" font-family="Helvetica,sans-Serif" font-size="10.00" fill="#ffffff">utils.time</text>
</g>
<!-- notes_app_utils_time&#45;&gt;notes_app_model_notes_model -->
<g id="edge20" class="edge">
<title>notes_app_utils_time&#45;&gt;notes_app_model_notes_model</title><style>.edge>path:hover{stroke-width:8}</style>
<path fill="none" stroke="black" d="M673.42,-234.06C693.81,-224.67 716.28,-209.22 709.32,-188.43"/>
<path fill="none" stroke="black" d="M709.32,-187.43C706.43,-178.78 663.66,-161.64 627.58,-148.54"/>
<polygon fill="#4747c2" stroke="black" points="628.7,-145.22 618.1,-145.14 626.33,-151.81 628.7,-145.22"/>
</g>
<!-- notes_app_view_notes_view&#45;&gt;notes_app_controller_notes_controller -->
<g id="edge21" class="edge">
<title>notes_app_view_notes_view&#45;&gt;notes_app_controller_notes_controller</title><style>.edge>path:hover{stroke-width:8}</style>
<path fill="none" stroke="black" d="M436.06,-224.47C433.23,-213.58 431.47,-200.03 435.32,-188.43"/>
</g>
<!-- kivy -->
<g id="node16" class="node">
<title>kivy</title><style>.edge>path:hover{stroke-width:8}</style>
<polygon fill="#f90606" stroke="black" points="683.32,-600.28 680.32,-604.28 659.32,-604.28 656.32,-600.28 629.32,-600.28 629.32,-564.28 683.32,-564.28 683.32,-600.28"/>
<text text-anchor="middle" x="656.32" y="-579.78" font-family="Helvetica,sans-Serif" font-size="10.00" fill="#ffffff">kivy</text>
</g>
<!-- kivy&#45;&gt;notes_app_main -->
<g id="edge2" class="edge">
<title>kivy&#45;&gt;notes_app_main</title><style>.edge>path:hover{stroke-width:8}</style>
<path fill="none" stroke="black" d="M656.32,-490.28C656.71,-467.66 676.8,-470.74 692.32,-454.28 729.95,-414.38 753.75,-412.91 774.32,-362.07"/>
</g>
<!-- kivy&#45;&gt;notes_app_view_notes_view -->
<g id="edge3" class="edge">
<title>kivy&#45;&gt;notes_app_view_notes_view</title><style>.edge>path:hover{stroke-width:8}</style>
<path fill="none" stroke="black" d="M658.19,-564.18C659.75,-545.95 661.04,-516.31 656.32,-491.28"/>
<path fill="none" stroke="black" d="M656.32,-490.28C650.03,-463.06 451.89,-398.74 429.32,-382.28 419.36,-375.01 416.86,-372.52 410.32,-362.07"/>
<path fill="none" stroke="black" d="M410.32,-360.07C396.16,-339.48 392.9,-321.76 410.32,-303.85"/>
</g>
<!-- kivymd -->
<g id="node17" class="node">
<title>kivymd</title><style>.edge>path:hover{stroke-width:8}</style>
<polygon fill="#06ef06" stroke="black" points="683.32,-454.28 680.32,-458.28 659.32,-458.28 656.32,-454.28 629.32,-454.28 629.32,-418.28 683.32,-418.28 683.32,-454.28"/>
<text text-anchor="middle" x="656.32" y="-433.78" font-family="Helvetica,sans-Serif" font-size="10.00" fill="#000000">kivymd</text>
</g>
<!-- kivy&#45;&gt;kivymd -->
<g id="edge1" class="edge">
<title>kivy&#45;&gt;kivymd</title><style>.edge>path:hover{stroke-width:8}</style>
<path fill="none" stroke="black" d="M656.32,-490.28C654.78,-482.11 654.32,-473.1 654.38,-464.86"/>
<polygon fill="#f90606" stroke="black" points="657.89,-464.72 654.71,-454.62 650.89,-464.5 657.89,-464.72"/>
</g>
<!-- kivymd&#45;&gt;notes_app_main -->
<g id="edge4" class="edge">
<title>kivymd&#45;&gt;notes_app_main</title><style>.edge>path:hover{stroke-width:8}</style>
<path fill="none" stroke="black" d="M683.33,-429C713.85,-420.15 761.02,-400.58 774.32,-362.07"/>
<path fill="none" stroke="black" d="M774.32,-360.07C790.78,-312.42 774.32,-297.05 774.32,-246.64 774.32,-246.64 774.32,-246.64 774.32,-187.43 774.32,-151.56 776.12,-138.22 755.32,-109 738.16,-84.89 686.02,-99.43 699.32,-73"/>
</g>
<!-- kivymd&#45;&gt;notes_app_view_notes_view -->
<g id="edge5" class="edge">
<title>kivymd&#45;&gt;notes_app_view_notes_view</title><style>.edge>path:hover{stroke-width:8}</style>
<path fill="none" stroke="black" d="M629.31,-433.99C584.82,-430.81 494.54,-419.87 429.32,-382.28 418.64,-376.12 416.86,-372.52 410.32,-362.07"/>
</g>
</g>
</svg>
