<?xml version="1.0" encoding="UTF-8" standalone="no"?>
<!DOCTYPE svg PUBLIC "-//W3C//DTD SVG 1.1//EN"
 "http://www.w3.org/Graphics/SVG/1.1/DTD/svg11.dtd">
<!-- Generated by graphviz version 2.43.0 (0)
 -->
<!-- Title: G Pages: 1 -->
<svg width="1034pt" height="608pt"
 viewBox="0.00 0.00 1034.41 608.28" xmlns="http://www.w3.org/2000/svg" xmlns:xlink="http://www.w3.org/1999/xlink">
<g id="graph0" class="graph" transform="scale(1 1) rotate(0) translate(4 604.28)">
<title>G</title><style>.edge>path:hover{stroke-width:8}</style>
<polygon fill="white" stroke="transparent" points="-4,4 -4,-604.28 1030.41,-604.28 1030.41,4 -4,4"/>
<!-- notes_app_controller_notes_controller -->
<g id="node1" class="node">
<title>notes_app_controller_notes_controller</title><style>.edge>path:hover{stroke-width:8}</style>
<ellipse fill="#3d3db8" stroke="black" cx="780.32" cy="-130.21" rx="67.35" ry="21.43"/>
<text text-anchor="middle" x="780.32" y="-133.21" font-family="Helvetica,sans-Serif" font-size="10.00" fill="#ffffff">controller.</text>
<text text-anchor="middle" x="780.32" y="-122.21" font-family="Helvetica,sans-Serif" font-size="10.00" fill="#ffffff">notes_controller</text>
</g>
<!-- notes_app_main -->
<g id="node2" class="node">
<title>notes_app_main</title><style>.edge>path:hover{stroke-width:8}</style>
<ellipse fill="#2e2e6b" stroke="black" cx="904.32" cy="-18" rx="27" ry="18"/>
<text text-anchor="middle" x="904.32" y="-15.5" font-family="Helvetica,sans-Serif" font-size="10.00" fill="#ffffff">main</text>
</g>
<!-- notes_app_controller_notes_controller&#45;&gt;notes_app_main -->
<g id="edge6" class="edge">
<title>notes_app_controller_notes_controller&#45;&gt;notes_app_main</title><style>.edge>path:hover{stroke-width:8}</style>
<path fill="none" stroke="black" d="M843.42,-122.61C872.01,-115.67 900.36,-101.56 904.32,-73"/>
<path fill="none" stroke="black" d="M904.32,-72C905.46,-63.76 905.8,-54.73 905.76,-46.5"/>
<polygon fill="#3d3db8" stroke="black" points="909.25,-46.18 905.51,-36.27 902.25,-46.35 909.25,-46.18"/>
</g>
<!-- notes_app_model_notes_model -->
<g id="node3" class="node">
<title>notes_app_model_notes_model</title><style>.edge>path:hover{stroke-width:8}</style>
<ellipse fill="#3a3ab0" stroke="black" cx="819.32" cy="-245.64" rx="56.64" ry="21.43"/>
<text text-anchor="middle" x="819.32" y="-248.64" font-family="Helvetica,sans-Serif" font-size="10.00" fill="#ffffff">model.</text>
<text text-anchor="middle" x="819.32" y="-237.64" font-family="Helvetica,sans-Serif" font-size="10.00" fill="#ffffff">notes_model</text>
</g>
<!-- notes_app_model_notes_model&#45;&gt;notes_app_main -->
<g id="edge7" class="edge">
<title>notes_app_model_notes_model&#45;&gt;notes_app_main</title><style>.edge>path:hover{stroke-width:8}</style>
<path fill="none" stroke="black" d="M860.65,-230.76C878.92,-221.98 897.75,-208.43 904.32,-188.43"/>
<path fill="none" stroke="black" d="M904.32,-187.43C920.19,-139.11 897.33,-123.37 904.32,-73"/>
</g>
<!-- notes_app_observer_notes_observer -->
<g id="node4" class="node">
<title>notes_app_observer_notes_observer</title><style>.edge>path:hover{stroke-width:8}</style>
<ellipse fill="#4747c2" stroke="black" cx="503.32" cy="-361.07" rx="65.11" ry="21.43"/>
<text text-anchor="middle" x="503.32" y="-364.07" font-family="Helvetica,sans-Serif" font-size="10.00" fill="#ffffff">observer.</text>
<text text-anchor="middle" x="503.32" y="-353.07" font-family="Helvetica,sans-Serif" font-size="10.00" fill="#ffffff">notes_observer</text>
</g>
<!-- notes_app_view_notes_view -->
<g id="node13" class="node">
<title>notes_app_view_notes_view</title><style>.edge>path:hover{stroke-width:8}</style>
<ellipse fill="#262673" stroke="black" cx="694.32" cy="-245.64" rx="50.82" ry="21.43"/>
<text text-anchor="middle" x="694.32" y="-248.64" font-family="Helvetica,sans-Serif" font-size="10.00" fill="#ffffff">view.</text>
<text text-anchor="middle" x="694.32" y="-237.64" font-family="Helvetica,sans-Serif" font-size="10.00" fill="#ffffff">notes_view</text>
</g>
<!-- notes_app_observer_notes_observer&#45;&gt;notes_app_view_notes_view -->
<g id="edge8" class="edge">
<title>notes_app_observer_notes_observer&#45;&gt;notes_app_view_notes_view</title><style>.edge>path:hover{stroke-width:8}</style>
<path fill="none" stroke="black" d="M455.85,-346.48C421.89,-335.05 386.1,-318.31 410.32,-303.85"/>
</g>
<!-- notes_app_utils_color -->
<g id="node5" class="node">
<title>notes_app_utils_color</title><style>.edge>path:hover{stroke-width:8}</style>
<ellipse fill="#4747c2" stroke="black" cx="662.32" cy="-361.07" rx="38.03" ry="18"/>
<text text-anchor="middle" x="662.32" y="-358.57" font-family="Helvetica,sans-Serif" font-size="10.00" fill="#ffffff">utils.color</text>
</g>
<!-- notes_app_utils_color&#45;&gt;notes_app_view_notes_view -->
<g id="edge9" class="edge">
<title>notes_app_utils_color&#45;&gt;notes_app_view_notes_view</title><style>.edge>path:hover{stroke-width:8}</style>
<path fill="none" stroke="black" d="M635.13,-348.36C627.23,-345.27 618.52,-342.16 610.32,-339.85 523.38,-315.38 332.77,-350.14 410.32,-303.85"/>
</g>
<!-- notes_app_utils_file -->
<g id="node6" class="node">
<title>notes_app_utils_file</title><style>.edge>path:hover{stroke-width:8}</style>
<ellipse fill="#3b3bce" stroke="black" cx="751.32" cy="-361.07" rx="32.93" ry="18"/>
<text text-anchor="middle" x="751.32" y="-358.57" font-family="Helvetica,sans-Serif" font-size="10.00" fill="#ffffff">utils.file</text>
</g>
<!-- notes_app_utils_file&#45;&gt;notes_app_model_notes_model -->
<g id="edge10" class="edge">
<title>notes_app_utils_file&#45;&gt;notes_app_model_notes_model</title><style>.edge>path:hover{stroke-width:8}</style>
<path fill="none" stroke="black" d="M776.32,-302.85C776.78,-291.67 782.36,-281.32 789.36,-272.64"/>
<polygon fill="#3b3bce" stroke="black" points="792,-274.93 796.08,-265.15 786.79,-270.26 792,-274.93"/>
</g>
<!-- notes_app_utils_file&#45;&gt;notes_app_view_notes_view -->
<g id="edge11" class="edge">
<title>notes_app_utils_file&#45;&gt;notes_app_view_notes_view</title><style>.edge>path:hover{stroke-width:8}</style>
<path fill="none" stroke="black" d="M762.54,-343.68C768.9,-332.88 775.73,-318.15 776.32,-303.85"/>
<path fill="none" stroke="black" d="M776.32,-302.85C777.1,-284.06 762.35,-271.07 745.15,-262.36"/>
<polygon fill="#3b3bce" stroke="black" points="746.56,-259.16 736.01,-258.19 743.65,-265.53 746.56,-259.16"/>
</g>
<!-- notes_app_utils_font -->
<g id="node7" class="node">
<title>notes_app_utils_font</title><style>.edge>path:hover{stroke-width:8}</style>
<ellipse fill="#4747c2" stroke="black" cx="35.32" cy="-361.07" rx="35.14" ry="18"/>
<text text-anchor="middle" x="35.32" y="-358.57" font-family="Helvetica,sans-Serif" font-size="10.00" fill="#ffffff">utils.font</text>
</g>
<!-- notes_app_utils_font&#45;&gt;notes_app_view_notes_view -->
<g id="edge12" class="edge">
<title>notes_app_utils_font&#45;&gt;notes_app_view_notes_view</title><style>.edge>path:hover{stroke-width:8}</style>
<path fill="none" stroke="black" d="M59,-347.5C65.44,-344.56 72.51,-341.73 79.32,-339.85 221.96,-300.46 283.25,-379.69 410.32,-303.85"/>
<path fill="none" stroke="black" d="M410.32,-302.85C479.17,-261.76 572.49,-250.05 633.05,-247.06"/>
<polygon fill="#4747c2" stroke="black" points="633.38,-250.55 643.22,-246.63 633.08,-243.56 633.38,-250.55"/>
</g>
<!-- notes_app_utils_mark -->
<g id="node8" class="node">
<title>notes_app_utils_mark</title><style>.edge>path:hover{stroke-width:8}</style>
<ellipse fill="#4747c2" stroke="black" cx="127.32" cy="-361.07" rx="38.7" ry="18"/>
<text text-anchor="middle" x="127.32" y="-358.57" font-family="Helvetica,sans-Serif" font-size="10.00" fill="#ffffff">utils.mark</text>
</g>
<!-- notes_app_utils_mark&#45;&gt;notes_app_view_notes_view -->
<g id="edge13" class="edge">
<title>notes_app_utils_mark&#45;&gt;notes_app_view_notes_view</title><style>.edge>path:hover{stroke-width:8}</style>
<path fill="none" stroke="black" d="M153.56,-347.64C160.51,-344.73 168.1,-341.89 175.32,-339.85 277,-311.13 319.59,-358.01 410.32,-303.85"/>
</g>
<!-- notes_app_utils_search -->
<g id="node9" class="node">
<title>notes_app_utils_search</title><style>.edge>path:hover{stroke-width:8}</style>
<ellipse fill="#4747c2" stroke="black" cx="227.32" cy="-361.07" rx="42.94" ry="18"/>
<text text-anchor="middle" x="227.32" y="-358.57" font-family="Helvetica,sans-Serif" font-size="10.00" fill="#ffffff">utils.search</text>
</g>
<!-- notes_app_utils_search&#45;&gt;notes_app_view_notes_view -->
<g id="edge14" class="edge">
<title>notes_app_utils_search&#45;&gt;notes_app_view_notes_view</title><style>.edge>path:hover{stroke-width:8}</style>
<path fill="none" stroke="black" d="M257.1,-347.89C264.32,-345.1 272.06,-342.26 279.32,-339.85 336.65,-320.89 358.47,-334.8 410.32,-303.85"/>
</g>
<!-- notes_app_utils_settings -->
<g id="node10" class="node">
<title>notes_app_utils_settings</title><style>.edge>path:hover{stroke-width:8}</style>
<ellipse fill="#4747c2" stroke="black" cx="979.32" cy="-130.21" rx="47.19" ry="18"/>
<text text-anchor="middle" x="979.32" y="-127.71" font-family="Helvetica,sans-Serif" font-size="10.00" fill="#ffffff">utils.settings</text>
</g>
<!-- notes_app_utils_settings&#45;&gt;notes_app_main -->
<g id="edge15" class="edge">
<title>notes_app_utils_settings&#45;&gt;notes_app_main</title><style>.edge>path:hover{stroke-width:8}</style>
<path fill="none" stroke="black" d="M943.78,-118.38C922.95,-109.63 901.26,-95.08 904.32,-73"/>
</g>
<!-- notes_app_utils_text_input -->
<g id="node11" class="node">
<title>notes_app_utils_text_input</title><style>.edge>path:hover{stroke-width:8}</style>
<ellipse fill="#4747c2" stroke="black" cx="335.32" cy="-361.07" rx="46.84" ry="21.43"/>
<text text-anchor="middle" x="335.32" y="-364.07" font-family="Helvetica,sans-Serif" font-size="10.00" fill="#ffffff">utils.</text>
<text text-anchor="middle" x="335.32" y="-353.07" font-family="Helvetica,sans-Serif" font-size="10.00" fill="#ffffff">text_input</text>
</g>
<!-- notes_app_utils_text_input&#45;&gt;notes_app_view_notes_view -->
<g id="edge16" class="edge">
<title>notes_app_utils_text_input&#45;&gt;notes_app_view_notes_view</title><style>.edge>path:hover{stroke-width:8}</style>
<path fill="none" stroke="black" d="M356.78,-342.07C371.34,-330.35 391.32,-315.19 410.32,-303.85"/>
</g>
<!-- notes_app_utils_time -->
<g id="node12" class="node">
<title>notes_app_utils_time</title><style>.edge>path:hover{stroke-width:8}</style>
<ellipse fill="#4747c2" stroke="black" cx="839.32" cy="-361.07" rx="37.17" ry="18"/>
<text text-anchor="middle" x="839.32" y="-358.57" font-family="Helvetica,sans-Serif" font-size="10.00" fill="#ffffff">utils.time</text>
</g>
<!-- notes_app_utils_time&#45;&gt;notes_app_model_notes_model -->
<g id="edge17" class="edge">
<title>notes_app_utils_time&#45;&gt;notes_app_model_notes_model</title><style>.edge>path:hover{stroke-width:8}</style>
<path fill="none" stroke="black" d="M836.28,-342.84C833.22,-325.45 828.42,-298.23 824.7,-277.17"/>
<polygon fill="#4747c2" stroke="black" points="828.11,-276.35 822.93,-267.11 821.22,-277.56 828.11,-276.35"/>
</g>
<!-- notes_app_view_notes_view&#45;&gt;notes_app_controller_notes_controller -->
<g id="edge18" class="edge">
<title>notes_app_view_notes_view&#45;&gt;notes_app_controller_notes_controller</title><style>.edge>path:hover{stroke-width:8}</style>
<path fill="none" stroke="black" d="M709.1,-225.14C722.86,-206.99 743.53,-179.74 759.06,-159.26"/>
<polygon fill="#262673" stroke="black" points="761.9,-161.3 765.15,-151.22 756.32,-157.07 761.9,-161.3"/>
</g>
<!-- kivy -->
<g id="node14" class="node">
<title>kivy</title><style>.edge>path:hover{stroke-width:8}</style>
<polygon fill="#f90606" stroke="black" points="876.32,-600.28 873.32,-604.28 852.32,-604.28 849.32,-600.28 822.32,-600.28 822.32,-564.28 876.32,-564.28 876.32,-600.28"/>
<text text-anchor="middle" x="849.32" y="-579.78" font-family="Helvetica,sans-Serif" font-size="10.00" fill="#ffffff">kivy</text>
</g>
<!-- kivy&#45;&gt;notes_app_main -->
<g id="edge2" class="edge">
<title>kivy&#45;&gt;notes_app_main</title><style>.edge>path:hover{stroke-width:8}</style>
<path fill="none" stroke="black" d="M849.32,-490.28C839.63,-469.83 874.58,-474.2 885.32,-454.28 905.17,-417.44 896.31,-403.14 904.32,-362.07"/>
</g>
<!-- kivy&#45;&gt;notes_app_view_notes_view -->
<g id="edge3" class="edge">
<title>kivy&#45;&gt;notes_app_view_notes_view</title><style>.edge>path:hover{stroke-width:8}</style>
<path fill="none" stroke="black" d="M853.42,-564.12C857.01,-545.31 860.13,-514.68 849.32,-491.28"/>
<path fill="none" stroke="black" d="M849.32,-490.28C799.84,-407.58 496.98,-450.9 429.32,-382.28 404.14,-356.74 379.52,-322.23 410.32,-303.85"/>
</g>
<!-- kivymd -->
<g id="node15" class="node">
<title>kivymd</title><style>.edge>path:hover{stroke-width:8}</style>
<polygon fill="#06ef06" stroke="black" points="876.32,-454.28 873.32,-458.28 852.32,-458.28 849.32,-454.28 822.32,-454.28 822.32,-418.28 876.32,-418.28 876.32,-454.28"/>
<text text-anchor="middle" x="849.32" y="-433.78" font-family="Helvetica,sans-Serif" font-size="10.00" fill="#000000">kivymd</text>
</g>
<!-- kivy&#45;&gt;kivymd -->
<g id="edge1" class="edge">
<title>kivy&#45;&gt;kivymd</title><style>.edge>path:hover{stroke-width:8}</style>
<path fill="none" stroke="black" d="M849.32,-490.28C845.64,-482.32 844.7,-472.95 844.97,-464.31"/>
<polygon fill="#f90606" stroke="black" points="848.47,-464.54 845.8,-454.29 841.49,-463.97 848.47,-464.54"/>
</g>
<!-- kivymd&#45;&gt;notes_app_main -->
<g id="edge4" class="edge">
<title>kivymd&#45;&gt;notes_app_main</title><style>.edge>path:hover{stroke-width:8}</style>
<path fill="none" stroke="black" d="M869.69,-418.16C883.66,-404.67 900.36,-384.45 904.32,-362.07"/>
<path fill="none" stroke="black" d="M904.32,-360.07C917.62,-284.95 878.64,-260.26 904.32,-188.43"/>
</g>
<!-- kivymd&#45;&gt;notes_app_view_notes_view -->
<g id="edge5" class="edge">
<title>kivymd&#45;&gt;notes_app_view_notes_view</title><style>.edge>path:hover{stroke-width:8}</style>
<path fill="none" stroke="black" d="M822.12,-434.41C776.37,-431.84 682.46,-421.76 615.32,-382.28 593.5,-369.45 599.21,-352.57 577.32,-339.85 511.67,-301.71 345.12,-342.77 410.32,-303.85"/>
</g>
</g>
</svg>
