<?xml version="1.0" encoding="UTF-8" standalone="no"?>
<!DOCTYPE svg PUBLIC "-//W3C//DTD SVG 1.1//EN"
 "http://www.w3.org/Graphics/SVG/1.1/DTD/svg11.dtd">
<!-- Generated by graphviz version 2.43.0 (0)
 -->
<!-- Title: G Pages: 1 -->
<svg width="727pt" height="678pt"
 viewBox="0.00 0.00 726.56 678.28" xmlns="http://www.w3.org/2000/svg" xmlns:xlink="http://www.w3.org/1999/xlink">
<g id="graph0" class="graph" transform="scale(1 1) rotate(0) translate(4 674.28)">
<title>G</title><style>.edge>path:hover{stroke-width:8}</style>
<polygon fill="white" stroke="transparent" points="-4,4 -4,-674.28 722.56,-674.28 722.56,4 -4,4"/>
<!-- notes_app -->
<g id="node1" class="node">
<title>notes_app</title><style>.edge>path:hover{stroke-width:8}</style>
<ellipse fill="#2626d9" stroke="black" cx="39.44" cy="-580.28" rx="39.38" ry="18"/>
<text text-anchor="middle" x="39.44" y="-577.78" font-family="Helvetica,sans-Serif" font-size="10.00" fill="#ffffff">notes_app</text>
</g>
<!-- notes_app_color -->
<g id="node2" class="node">
<title>notes_app_color</title><style>.edge>path:hover{stroke-width:8}</style>
<ellipse fill="#4747c2" stroke="black" cx="673.44" cy="-396.07" rx="27" ry="18"/>
<text text-anchor="middle" x="673.44" y="-393.57" font-family="Helvetica,sans-Serif" font-size="10.00" fill="#ffffff">color</text>
</g>
<!-- notes_app_view_notes_view -->
<g id="node15" class="node">
<title>notes_app_view_notes_view</title><style>.edge>path:hover{stroke-width:8}</style>
<ellipse fill="#262673" stroke="black" cx="346.44" cy="-280.64" rx="50.82" ry="21.43"/>
<text text-anchor="middle" x="346.44" y="-283.64" font-family="Helvetica,sans-Serif" font-size="10.00" fill="#ffffff">view.</text>
<text text-anchor="middle" x="346.44" y="-272.64" font-family="Helvetica,sans-Serif" font-size="10.00" fill="#ffffff">notes_view</text>
</g>
<!-- notes_app_color&#45;&gt;notes_app_view_notes_view -->
<g id="edge6" class="edge">
<title>notes_app_color&#45;&gt;notes_app_view_notes_view</title><style>.edge>path:hover{stroke-width:8}</style>
<path fill="none" stroke="black" d="M654.49,-383.14C649.13,-380.12 643.18,-377.1 637.44,-374.85 573.61,-349.83 506.3,-404.77 487.44,-338.85"/>
</g>
<!-- notes_app_controller_notes_controller -->
<g id="node3" class="node">
<title>notes_app_controller_notes_controller</title><style>.edge>path:hover{stroke-width:8}</style>
<ellipse fill="#3d3db8" stroke="black" cx="362.44" cy="-165.21" rx="67.35" ry="21.43"/>
<text text-anchor="middle" x="362.44" y="-168.21" font-family="Helvetica,sans-Serif" font-size="10.00" fill="#ffffff">controller.</text>
<text text-anchor="middle" x="362.44" y="-157.21" font-family="Helvetica,sans-Serif" font-size="10.00" fill="#ffffff">notes_controller</text>
</g>
<!-- notes_app_main -->
<g id="node8" class="node">
<title>notes_app_main</title><style>.edge>path:hover{stroke-width:8}</style>
<ellipse fill="#2e2e6b" stroke="black" cx="182.44" cy="-18" rx="27" ry="18"/>
<text text-anchor="middle" x="182.44" y="-15.5" font-family="Helvetica,sans-Serif" font-size="10.00" fill="#ffffff">main</text>
</g>
<!-- notes_app_controller_notes_controller&#45;&gt;notes_app_main -->
<g id="edge7" class="edge">
<title>notes_app_controller_notes_controller&#45;&gt;notes_app_main</title><style>.edge>path:hover{stroke-width:8}</style>
<path fill="none" stroke="black" d="M345.52,-144.68C333.43,-130.3 317.13,-110.02 304.44,-91"/>
</g>
<!-- notes_app_defaults -->
<g id="node4" class="node">
<title>notes_app_defaults</title><style>.edge>path:hover{stroke-width:8}</style>
<ellipse fill="#4747c2" stroke="black" cx="121.44" cy="-90" rx="32.93" ry="18"/>
<text text-anchor="middle" x="121.44" y="-87.5" font-family="Helvetica,sans-Serif" font-size="10.00" fill="#ffffff">defaults</text>
</g>
<!-- notes_app_defaults&#45;&gt;notes_app_main -->
<g id="edge8" class="edge">
<title>notes_app_defaults&#45;&gt;notes_app_main</title><style>.edge>path:hover{stroke-width:8}</style>
<path fill="none" stroke="black" d="M134.98,-73.46C143.15,-64.09 153.69,-51.99 162.77,-41.57"/>
<polygon fill="#4747c2" stroke="black" points="165.43,-43.85 169.36,-34.01 160.15,-39.25 165.43,-43.85"/>
</g>
<!-- notes_app_diff -->
<g id="node5" class="node">
<title>notes_app_diff</title><style>.edge>path:hover{stroke-width:8}</style>
<ellipse fill="#4747c2" stroke="black" cx="161.44" cy="-396.07" rx="27" ry="18"/>
<text text-anchor="middle" x="161.44" y="-393.57" font-family="Helvetica,sans-Serif" font-size="10.00" fill="#ffffff">diff</text>
</g>
<!-- notes_app_diff&#45;&gt;notes_app_view_notes_view -->
<g id="edge9" class="edge">
<title>notes_app_diff&#45;&gt;notes_app_view_notes_view</title><style>.edge>path:hover{stroke-width:8}</style>
<path fill="none" stroke="black" d="M180.23,-382.71C185.6,-379.69 191.58,-376.78 197.44,-374.85 259.13,-354.58 505.31,-401.29 487.44,-338.85"/>
<path fill="none" stroke="black" d="M487.44,-337.85C477.91,-304.56 441.02,-290.63 407.36,-284.97"/>
<polygon fill="#4747c2" stroke="black" points="407.45,-281.44 397.05,-283.46 406.44,-288.37 407.45,-281.44"/>
</g>
<!-- notes_app_file -->
<g id="node6" class="node">
<title>notes_app_file</title><style>.edge>path:hover{stroke-width:8}</style>
<ellipse fill="#4747c2" stroke="black" cx="233.44" cy="-396.07" rx="27" ry="18"/>
<text text-anchor="middle" x="233.44" y="-393.57" font-family="Helvetica,sans-Serif" font-size="10.00" fill="#ffffff">file</text>
</g>
<!-- notes_app_file&#45;&gt;notes_app_view_notes_view -->
<g id="edge10" class="edge">
<title>notes_app_file&#45;&gt;notes_app_view_notes_view</title><style>.edge>path:hover{stroke-width:8}</style>
<path fill="none" stroke="black" d="M252.29,-382.86C257.65,-379.85 263.62,-376.89 269.44,-374.85 315.77,-358.59 500.95,-386.06 487.44,-338.85"/>
</g>
<!-- notes_app_font -->
<g id="node7" class="node">
<title>notes_app_font</title><style>.edge>path:hover{stroke-width:8}</style>
<ellipse fill="#4747c2" stroke="black" cx="305.44" cy="-396.07" rx="27" ry="18"/>
<text text-anchor="middle" x="305.44" y="-393.57" font-family="Helvetica,sans-Serif" font-size="10.00" fill="#ffffff">font</text>
</g>
<!-- notes_app_font&#45;&gt;notes_app_view_notes_view -->
<g id="edge11" class="edge">
<title>notes_app_font&#45;&gt;notes_app_view_notes_view</title><style>.edge>path:hover{stroke-width:8}</style>
<path fill="none" stroke="black" d="M324.4,-383.16C329.76,-380.15 335.71,-377.12 341.44,-374.85 403.59,-350.27 505.83,-403.11 487.44,-338.85"/>
</g>
<!-- notes_app_mark -->
<g id="node9" class="node">
<title>notes_app_mark</title><style>.edge>path:hover{stroke-width:8}</style>
<ellipse fill="#4747c2" stroke="black" cx="377.44" cy="-396.07" rx="27" ry="18"/>
<text text-anchor="middle" x="377.44" y="-393.57" font-family="Helvetica,sans-Serif" font-size="10.00" fill="#ffffff">mark</text>
</g>
<!-- notes_app_mark&#45;&gt;notes_app_view_notes_view -->
<g id="edge12" class="edge">
<title>notes_app_mark&#45;&gt;notes_app_view_notes_view</title><style>.edge>path:hover{stroke-width:8}</style>
<path fill="none" stroke="black" d="M397.13,-383.73C402.4,-380.78 408.11,-377.64 413.44,-374.85 445.84,-357.89 497.5,-374.02 487.44,-338.85"/>
</g>
<!-- notes_app_model_notes_model -->
<g id="node10" class="node">
<title>notes_app_model_notes_model</title><style>.edge>path:hover{stroke-width:8}</style>
<ellipse fill="#4747c2" stroke="black" cx="182.44" cy="-165.21" rx="56.64" ry="21.43"/>
<text text-anchor="middle" x="182.44" y="-168.21" font-family="Helvetica,sans-Serif" font-size="10.00" fill="#ffffff">model.</text>
<text text-anchor="middle" x="182.44" y="-157.21" font-family="Helvetica,sans-Serif" font-size="10.00" fill="#ffffff">notes_model</text>
</g>
<!-- notes_app_model_notes_model&#45;&gt;notes_app_main -->
<g id="edge13" class="edge">
<title>notes_app_model_notes_model&#45;&gt;notes_app_main</title><style>.edge>path:hover{stroke-width:8}</style>
<path fill="none" stroke="black" d="M182.44,-143.72C182.44,-118.2 182.44,-74.55 182.44,-46.25"/>
<polygon fill="#4747c2" stroke="black" points="185.94,-46.22 182.44,-36.22 178.94,-46.22 185.94,-46.22"/>
</g>
<!-- notes_app_observer_notes_observer -->
<g id="node11" class="node">
<title>notes_app_observer_notes_observer</title><style>.edge>path:hover{stroke-width:8}</style>
<ellipse fill="#4747c2" stroke="black" cx="487.44" cy="-396.07" rx="65.11" ry="21.43"/>
<text text-anchor="middle" x="487.44" y="-399.07" font-family="Helvetica,sans-Serif" font-size="10.00" fill="#ffffff">observer.</text>
<text text-anchor="middle" x="487.44" y="-388.07" font-family="Helvetica,sans-Serif" font-size="10.00" fill="#ffffff">notes_observer</text>
</g>
<!-- notes_app_observer_notes_observer&#45;&gt;notes_app_view_notes_view -->
<g id="edge14" class="edge">
<title>notes_app_observer_notes_observer&#45;&gt;notes_app_view_notes_view</title><style>.edge>path:hover{stroke-width:8}</style>
<path fill="none" stroke="black" d="M490.11,-374.66C490.87,-363.82 490.74,-350.39 487.44,-338.85"/>
</g>
<!-- notes_app_search -->
<g id="node12" class="node">
<title>notes_app_search</title><style>.edge>path:hover{stroke-width:8}</style>
<ellipse fill="#4747c2" stroke="black" cx="599.44" cy="-396.07" rx="28.69" ry="18"/>
<text text-anchor="middle" x="599.44" y="-393.57" font-family="Helvetica,sans-Serif" font-size="10.00" fill="#ffffff">search</text>
</g>
<!-- notes_app_search&#45;&gt;notes_app_view_notes_view -->
<g id="edge15" class="edge">
<title>notes_app_search&#45;&gt;notes_app_view_notes_view</title><style>.edge>path:hover{stroke-width:8}</style>
<path fill="none" stroke="black" d="M578.21,-383.6C572.76,-380.71 566.9,-377.63 561.44,-374.85 528.85,-358.26 497.5,-374.02 487.44,-338.85"/>
</g>
<!-- notes_app_settings -->
<g id="node13" class="node">
<title>notes_app_settings</title><style>.edge>path:hover{stroke-width:8}</style>
<ellipse fill="#4747c2" stroke="black" cx="243.44" cy="-90" rx="32.93" ry="18"/>
<text text-anchor="middle" x="243.44" y="-87.5" font-family="Helvetica,sans-Serif" font-size="10.00" fill="#ffffff">settings</text>
</g>
<!-- notes_app_settings&#45;&gt;notes_app_main -->
<g id="edge16" class="edge">
<title>notes_app_settings&#45;&gt;notes_app_main</title><style>.edge>path:hover{stroke-width:8}</style>
<path fill="none" stroke="black" d="M229.9,-73.46C221.74,-64.09 211.19,-51.99 202.11,-41.57"/>
<polygon fill="#4747c2" stroke="black" points="204.73,-39.25 195.52,-34.01 199.45,-43.85 204.73,-39.25"/>
</g>
<!-- notes_app_version -->
<g id="node14" class="node">
<title>notes_app_version</title><style>.edge>path:hover{stroke-width:8}</style>
<ellipse fill="#4747c2" stroke="black" cx="39.44" cy="-652.28" rx="31.4" ry="18"/>
<text text-anchor="middle" x="39.44" y="-649.78" font-family="Helvetica,sans-Serif" font-size="10.00" fill="#ffffff">version</text>
</g>
<!-- notes_app_version&#45;&gt;notes_app -->
<g id="edge17" class="edge">
<title>notes_app_version&#45;&gt;notes_app</title><style>.edge>path:hover{stroke-width:8}</style>
<path fill="none" stroke="black" d="M39.44,-633.98C39.44,-626.26 39.44,-616.99 39.44,-608.39"/>
<polygon fill="#4747c2" stroke="black" points="42.94,-608.38 39.44,-598.38 35.94,-608.38 42.94,-608.38"/>
</g>
<!-- notes_app_view_notes_view&#45;&gt;notes_app_controller_notes_controller -->
<g id="edge18" class="edge">
<title>notes_app_view_notes_view&#45;&gt;notes_app_controller_notes_controller</title><style>.edge>path:hover{stroke-width:8}</style>
<path fill="none" stroke="black" d="M349.3,-259.36C351.75,-241.97 355.33,-216.65 358.13,-196.8"/>
<polygon fill="#262673" stroke="black" points="361.62,-197.09 359.55,-186.7 354.69,-196.11 361.62,-197.09"/>
</g>
<!-- kivy -->
<g id="node16" class="node">
<title>kivy</title><style>.edge>path:hover{stroke-width:8}</style>
<polygon fill="#f90606" stroke="black" points="142.44,-670.28 139.44,-674.28 118.44,-674.28 115.44,-670.28 88.44,-670.28 88.44,-634.28 142.44,-634.28 142.44,-670.28"/>
<text text-anchor="middle" x="115.44" y="-649.78" font-family="Helvetica,sans-Serif" font-size="10.00" fill="#ffffff">kivy</text>
</g>
<!-- kivy&#45;&gt;notes_app_main -->
<g id="edge2" class="edge">
<title>kivy&#45;&gt;notes_app_main</title><style>.edge>path:hover{stroke-width:8}</style>
<path fill="none" stroke="black" d="M111.1,-634.14C105.69,-609.12 99.02,-561.72 115.44,-526.28"/>
<path fill="none" stroke="black" d="M115.44,-525.28C126.78,-505.7 90.18,-509.2 79.44,-489.28 59.59,-452.44 60.44,-438.91 60.44,-397.07 60.44,-397.07 60.44,-397.07 60.44,-164.21 60.44,-122.37 54.14,-105.33 79.44,-72 96.28,-49.82 125.05,-36.12 147.91,-28.23"/>
<polygon fill="#f90606" stroke="black" points="149.17,-31.5 157.61,-25.09 147.02,-24.84 149.17,-31.5"/>
</g>
<!-- kivy&#45;&gt;notes_app_view_notes_view -->
<g id="edge3" class="edge">
<title>kivy&#45;&gt;notes_app_view_notes_view</title><style>.edge>path:hover{stroke-width:8}</style>
<path fill="none" stroke="black" d="M115.44,-525.28C115.44,-458.2 666.46,-468.78 709.44,-417.28 721.52,-402.8 721.66,-389.21 709.44,-374.85 644.66,-298.73 514.94,-434.95 487.44,-338.85"/>
</g>
<!-- kivymd -->
<g id="node17" class="node">
<title>kivymd</title><style>.edge>path:hover{stroke-width:8}</style>
<polygon fill="#06ef06" stroke="black" points="142.44,-489.28 139.44,-493.28 118.44,-493.28 115.44,-489.28 88.44,-489.28 88.44,-453.28 142.44,-453.28 142.44,-489.28"/>
<text text-anchor="middle" x="115.44" y="-468.78" font-family="Helvetica,sans-Serif" font-size="10.00" fill="#000000">kivymd</text>
</g>
<!-- kivy&#45;&gt;kivymd -->
<g id="edge1" class="edge">
<title>kivy&#45;&gt;kivymd</title><style>.edge>path:hover{stroke-width:8}</style>
<path fill="none" stroke="black" d="M115.44,-525.28C115.44,-516.96 115.44,-507.91 115.44,-499.68"/>
<polygon fill="#f90606" stroke="black" points="118.94,-499.46 115.44,-489.46 111.94,-499.47 118.94,-499.46"/>
</g>
<!-- kivymd&#45;&gt;notes_app_main -->
<g id="edge4" class="edge">
<title>kivymd&#45;&gt;notes_app_main</title><style>.edge>path:hover{stroke-width:8}</style>
<path fill="none" stroke="black" d="M111.91,-453.2C108.62,-432.15 106.69,-396.52 125.44,-374.85 168.05,-325.62 215.9,-378.64 267.44,-338.85"/>
<path fill="none" stroke="black" d="M267.44,-337.85C301.37,-310.97 277.31,-186.31 286.44,-144 291.69,-119.68 318.24,-111.7 304.44,-91"/>
<path fill="none" stroke="black" d="M304.44,-89C282.32,-59.64 244.04,-40.61 216.25,-29.91"/>
<polygon fill="#06ef06" stroke="black" points="217.12,-26.5 206.53,-26.34 214.71,-33.07 217.12,-26.5"/>
</g>
<!-- kivymd&#45;&gt;notes_app_view_notes_view -->
<g id="edge5" class="edge">
<title>kivymd&#45;&gt;notes_app_view_notes_view</title><style>.edge>path:hover{stroke-width:8}</style>
<path fill="none" stroke="black" d="M267.44,-337.85C281.9,-326.69 298.29,-314.9 312.38,-305.01"/>
<polygon fill="#06ef06" stroke="black" points="314.62,-307.71 320.81,-299.12 310.61,-301.97 314.62,-307.71"/>
</g>
</g>
</svg>
