<?xml version="1.0" encoding="UTF-8" standalone="no"?>
<!DOCTYPE svg PUBLIC "-//W3C//DTD SVG 1.1//EN"
 "http://www.w3.org/Graphics/SVG/1.1/DTD/svg11.dtd">
<!-- Generated by graphviz version 2.43.0 (0)
 -->
<!-- Title: G Pages: 1 -->
<svg width="596pt" height="643pt"
 viewBox="0.00 0.00 595.64 643.28" xmlns="http://www.w3.org/2000/svg" xmlns:xlink="http://www.w3.org/1999/xlink">
<g id="graph0" class="graph" transform="scale(1 1) rotate(0) translate(4 639.28)">
<title>G</title><style>.edge>path:hover{stroke-width:8}</style>
<polygon fill="white" stroke="transparent" points="-4,4 -4,-639.28 591.64,-639.28 591.64,4 -4,4"/>
<!-- notes_app_color -->
<g id="node1" class="node">
<title>notes_app_color</title><style>.edge>path:hover{stroke-width:8}</style>
<ellipse fill="#4747c2" stroke="black" cx="542.58" cy="-396.07" rx="27" ry="18"/>
<text text-anchor="middle" x="542.58" y="-393.57" font-family="Helvetica,sans-Serif" font-size="10.00" fill="#ffffff">color</text>
</g>
<!-- notes_app_view_notes_view -->
<g id="node13" class="node">
<title>notes_app_view_notes_view</title><style>.edge>path:hover{stroke-width:8}</style>
<ellipse fill="#262673" stroke="black" cx="227.58" cy="-280.64" rx="50.82" ry="21.43"/>
<text text-anchor="middle" x="227.58" y="-283.64" font-family="Helvetica,sans-Serif" font-size="10.00" fill="#ffffff">view.</text>
<text text-anchor="middle" x="227.58" y="-272.64" font-family="Helvetica,sans-Serif" font-size="10.00" fill="#ffffff">notes_view</text>
</g>
<!-- notes_app_color&#45;&gt;notes_app_view_notes_view -->
<g id="edge6" class="edge">
<title>notes_app_color&#45;&gt;notes_app_view_notes_view</title><style>.edge>path:hover{stroke-width:8}</style>
<path fill="none" stroke="black" d="M523.63,-383.14C518.26,-380.12 512.31,-377.1 506.58,-374.85 442.74,-349.83 393.36,-396.71 356.58,-338.85"/>
</g>
<!-- notes_app_controller_notes_controller -->
<g id="node2" class="node">
<title>notes_app_controller_notes_controller</title><style>.edge>path:hover{stroke-width:8}</style>
<ellipse fill="#3a3ab0" stroke="black" cx="303.58" cy="-165.21" rx="67.35" ry="21.43"/>
<text text-anchor="middle" x="303.58" y="-168.21" font-family="Helvetica,sans-Serif" font-size="10.00" fill="#ffffff">controller.</text>
<text text-anchor="middle" x="303.58" y="-157.21" font-family="Helvetica,sans-Serif" font-size="10.00" fill="#ffffff">notes_controller</text>
</g>
<!-- notes_app_main -->
<g id="node7" class="node">
<title>notes_app_main</title><style>.edge>path:hover{stroke-width:8}</style>
<ellipse fill="#2e2e6b" stroke="black" cx="123.58" cy="-18" rx="27" ry="18"/>
<text text-anchor="middle" x="123.58" y="-15.5" font-family="Helvetica,sans-Serif" font-size="10.00" fill="#ffffff">main</text>
</g>
<!-- notes_app_controller_notes_controller&#45;&gt;notes_app_main -->
<g id="edge7" class="edge">
<title>notes_app_controller_notes_controller&#45;&gt;notes_app_main</title><style>.edge>path:hover{stroke-width:8}</style>
<path fill="none" stroke="black" d="M286.66,-144.68C274.57,-130.3 258.26,-110.02 245.58,-91"/>
</g>
<!-- notes_app_defaults -->
<g id="node3" class="node">
<title>notes_app_defaults</title><style>.edge>path:hover{stroke-width:8}</style>
<ellipse fill="#4747c2" stroke="black" cx="62.58" cy="-90" rx="32.93" ry="18"/>
<text text-anchor="middle" x="62.58" y="-87.5" font-family="Helvetica,sans-Serif" font-size="10.00" fill="#ffffff">defaults</text>
</g>
<!-- notes_app_defaults&#45;&gt;notes_app_main -->
<g id="edge8" class="edge">
<title>notes_app_defaults&#45;&gt;notes_app_main</title><style>.edge>path:hover{stroke-width:8}</style>
<path fill="none" stroke="black" d="M76.11,-73.46C84.28,-64.09 94.83,-51.99 103.9,-41.57"/>
<polygon fill="#4747c2" stroke="black" points="106.56,-43.85 110.49,-34.01 101.29,-39.25 106.56,-43.85"/>
</g>
<!-- notes_app_diff -->
<g id="node4" class="node">
<title>notes_app_diff</title><style>.edge>path:hover{stroke-width:8}</style>
<ellipse fill="#4747c2" stroke="black" cx="323.58" cy="-280.64" rx="27" ry="18"/>
<text text-anchor="middle" x="323.58" y="-278.14" font-family="Helvetica,sans-Serif" font-size="10.00" fill="#ffffff">diff</text>
</g>
<!-- notes_app_diff&#45;&gt;notes_app_controller_notes_controller -->
<g id="edge9" class="edge">
<title>notes_app_diff&#45;&gt;notes_app_controller_notes_controller</title><style>.edge>path:hover{stroke-width:8}</style>
<path fill="none" stroke="black" d="M321.99,-262.52C321.34,-251.31 321.22,-236.39 323.58,-223.43"/>
</g>
<!-- notes_app_file -->
<g id="node5" class="node">
<title>notes_app_file</title><style>.edge>path:hover{stroke-width:8}</style>
<ellipse fill="#4747c2" stroke="black" cx="102.58" cy="-396.07" rx="27" ry="18"/>
<text text-anchor="middle" x="102.58" y="-393.57" font-family="Helvetica,sans-Serif" font-size="10.00" fill="#ffffff">file</text>
</g>
<!-- notes_app_file&#45;&gt;notes_app_view_notes_view -->
<g id="edge10" class="edge">
<title>notes_app_file&#45;&gt;notes_app_view_notes_view</title><style>.edge>path:hover{stroke-width:8}</style>
<path fill="none" stroke="black" d="M121.42,-382.86C126.79,-379.85 132.76,-376.89 138.58,-374.85 184.9,-358.59 382.92,-380.29 356.58,-338.85"/>
<path fill="none" stroke="black" d="M356.58,-337.85C351.71,-330.2 309.06,-312.5 274.11,-298.99"/>
<polygon fill="#4747c2" stroke="black" points="275.09,-295.62 264.5,-295.31 272.58,-302.16 275.09,-295.62"/>
</g>
<!-- notes_app_font -->
<g id="node6" class="node">
<title>notes_app_font</title><style>.edge>path:hover{stroke-width:8}</style>
<ellipse fill="#4747c2" stroke="black" cx="174.58" cy="-396.07" rx="27" ry="18"/>
<text text-anchor="middle" x="174.58" y="-393.57" font-family="Helvetica,sans-Serif" font-size="10.00" fill="#ffffff">font</text>
</g>
<!-- notes_app_font&#45;&gt;notes_app_view_notes_view -->
<g id="edge11" class="edge">
<title>notes_app_font&#45;&gt;notes_app_view_notes_view</title><style>.edge>path:hover{stroke-width:8}</style>
<path fill="none" stroke="black" d="M193.53,-383.16C198.9,-380.15 204.84,-377.12 210.58,-374.85 272.72,-350.27 392.44,-395.25 356.58,-338.85"/>
</g>
<!-- notes_app_mark -->
<g id="node8" class="node">
<title>notes_app_mark</title><style>.edge>path:hover{stroke-width:8}</style>
<ellipse fill="#4747c2" stroke="black" cx="246.58" cy="-396.07" rx="27" ry="18"/>
<text text-anchor="middle" x="246.58" y="-393.57" font-family="Helvetica,sans-Serif" font-size="10.00" fill="#ffffff">mark</text>
</g>
<!-- notes_app_mark&#45;&gt;notes_app_view_notes_view -->
<g id="edge12" class="edge">
<title>notes_app_mark&#45;&gt;notes_app_view_notes_view</title><style>.edge>path:hover{stroke-width:8}</style>
<path fill="none" stroke="black" d="M266.27,-383.73C271.53,-380.78 277.24,-377.64 282.58,-374.85 314.98,-357.89 376.2,-369.72 356.58,-338.85"/>
</g>
<!-- notes_app_model_notes_model -->
<g id="node9" class="node">
<title>notes_app_model_notes_model</title><style>.edge>path:hover{stroke-width:8}</style>
<ellipse fill="#4747c2" stroke="black" cx="123.58" cy="-165.21" rx="56.64" ry="21.43"/>
<text text-anchor="middle" x="123.58" y="-168.21" font-family="Helvetica,sans-Serif" font-size="10.00" fill="#ffffff">model.</text>
<text text-anchor="middle" x="123.58" y="-157.21" font-family="Helvetica,sans-Serif" font-size="10.00" fill="#ffffff">notes_model</text>
</g>
<!-- notes_app_model_notes_model&#45;&gt;notes_app_main -->
<g id="edge13" class="edge">
<title>notes_app_model_notes_model&#45;&gt;notes_app_main</title><style>.edge>path:hover{stroke-width:8}</style>
<path fill="none" stroke="black" d="M123.58,-143.72C123.58,-118.2 123.58,-74.55 123.58,-46.25"/>
<polygon fill="#4747c2" stroke="black" points="127.08,-46.22 123.58,-36.22 120.08,-46.22 127.08,-46.22"/>
</g>
<!-- notes_app_observer_notes_observer -->
<g id="node10" class="node">
<title>notes_app_observer_notes_observer</title><style>.edge>path:hover{stroke-width:8}</style>
<ellipse fill="#4747c2" stroke="black" cx="356.58" cy="-396.07" rx="65.11" ry="21.43"/>
<text text-anchor="middle" x="356.58" y="-399.07" font-family="Helvetica,sans-Serif" font-size="10.00" fill="#ffffff">observer.</text>
<text text-anchor="middle" x="356.58" y="-388.07" font-family="Helvetica,sans-Serif" font-size="10.00" fill="#ffffff">notes_observer</text>
</g>
<!-- notes_app_observer_notes_observer&#45;&gt;notes_app_view_notes_view -->
<g id="edge14" class="edge">
<title>notes_app_observer_notes_observer&#45;&gt;notes_app_view_notes_view</title><style>.edge>path:hover{stroke-width:8}</style>
<path fill="none" stroke="black" d="M361.6,-374.87C363.28,-363.45 363.28,-349.39 356.58,-338.85"/>
</g>
<!-- notes_app_search -->
<g id="node11" class="node">
<title>notes_app_search</title><style>.edge>path:hover{stroke-width:8}</style>
<ellipse fill="#4747c2" stroke="black" cx="468.58" cy="-396.07" rx="28.69" ry="18"/>
<text text-anchor="middle" x="468.58" y="-393.57" font-family="Helvetica,sans-Serif" font-size="10.00" fill="#ffffff">search</text>
</g>
<!-- notes_app_search&#45;&gt;notes_app_view_notes_view -->
<g id="edge15" class="edge">
<title>notes_app_search&#45;&gt;notes_app_view_notes_view</title><style>.edge>path:hover{stroke-width:8}</style>
<path fill="none" stroke="black" d="M447.34,-383.6C441.9,-380.71 436.04,-377.63 430.58,-374.85 397.98,-358.26 376.2,-369.72 356.58,-338.85"/>
</g>
<!-- notes_app_settings -->
<g id="node12" class="node">
<title>notes_app_settings</title><style>.edge>path:hover{stroke-width:8}</style>
<ellipse fill="#4747c2" stroke="black" cx="184.58" cy="-90" rx="32.93" ry="18"/>
<text text-anchor="middle" x="184.58" y="-87.5" font-family="Helvetica,sans-Serif" font-size="10.00" fill="#ffffff">settings</text>
</g>
<!-- notes_app_settings&#45;&gt;notes_app_main -->
<g id="edge16" class="edge">
<title>notes_app_settings&#45;&gt;notes_app_main</title><style>.edge>path:hover{stroke-width:8}</style>
<path fill="none" stroke="black" d="M171.04,-73.46C162.87,-64.09 152.32,-51.99 143.25,-41.57"/>
<polygon fill="#4747c2" stroke="black" points="145.87,-39.25 136.66,-34.01 140.59,-43.85 145.87,-39.25"/>
</g>
<!-- notes_app_view_notes_view&#45;&gt;notes_app_controller_notes_controller -->
<g id="edge17" class="edge">
<title>notes_app_view_notes_view&#45;&gt;notes_app_controller_notes_controller</title><style>.edge>path:hover{stroke-width:8}</style>
<path fill="none" stroke="black" d="M263.32,-265.46C289.54,-253.97 321.02,-237.44 323.58,-223.43"/>
<path fill="none" stroke="black" d="M323.58,-222.43C325.22,-213.39 323.33,-203.88 320.15,-195.29"/>
<polygon fill="#262673" stroke="black" points="323.34,-193.85 316.14,-186.08 316.92,-196.64 323.34,-193.85"/>
</g>
<!-- kivy -->
<g id="node14" class="node">
<title>kivy</title><style>.edge>path:hover{stroke-width:8}</style>
<polygon fill="#f90606" stroke="black" points="83.58,-635.28 80.58,-639.28 59.58,-639.28 56.58,-635.28 29.58,-635.28 29.58,-599.28 83.58,-599.28 83.58,-635.28"/>
<text text-anchor="middle" x="56.58" y="-614.78" font-family="Helvetica,sans-Serif" font-size="10.00" fill="#ffffff">kivy</text>
</g>
<!-- kivy&#45;&gt;notes_app_main -->
<g id="edge2" class="edge">
<title>kivy&#45;&gt;notes_app_main</title><style>.edge>path:hover{stroke-width:8}</style>
<path fill="none" stroke="black" d="M52.79,-599.26C49.47,-580.56 46.58,-550.05 56.58,-526.28"/>
<path fill="none" stroke="black" d="M56.58,-525.28C66.99,-505.19 31.31,-509.2 20.58,-489.28 0.72,-452.44 1.58,-438.91 1.58,-397.07 1.58,-397.07 1.58,-397.07 1.58,-164.21 1.58,-122.37 -4.73,-105.33 20.58,-72 37.42,-49.82 66.19,-36.12 89.04,-28.23"/>
<polygon fill="#f90606" stroke="black" points="90.31,-31.5 98.75,-25.09 88.16,-24.84 90.31,-31.5"/>
</g>
<!-- kivy&#45;&gt;notes_app_view_notes_view -->
<g id="edge3" class="edge">
<title>kivy&#45;&gt;notes_app_view_notes_view</title><style>.edge>path:hover{stroke-width:8}</style>
<path fill="none" stroke="black" d="M56.58,-525.28C56.58,-466.05 541.18,-463.21 578.58,-417.28 590.48,-402.66 590.8,-389.21 578.58,-374.85 513.8,-298.73 410.21,-423.2 356.58,-338.85"/>
</g>
<!-- kivymd -->
<g id="node15" class="node">
<title>kivymd</title><style>.edge>path:hover{stroke-width:8}</style>
<polygon fill="#06ef06" stroke="black" points="83.58,-489.28 80.58,-493.28 59.58,-493.28 56.58,-489.28 29.58,-489.28 29.58,-453.28 83.58,-453.28 83.58,-489.28"/>
<text text-anchor="middle" x="56.58" y="-468.78" font-family="Helvetica,sans-Serif" font-size="10.00" fill="#000000">kivymd</text>
</g>
<!-- kivy&#45;&gt;kivymd -->
<g id="edge1" class="edge">
<title>kivy&#45;&gt;kivymd</title><style>.edge>path:hover{stroke-width:8}</style>
<path fill="none" stroke="black" d="M56.58,-525.28C56.58,-516.96 56.58,-507.91 56.58,-499.68"/>
<polygon fill="#f90606" stroke="black" points="60.08,-499.46 56.58,-489.46 53.08,-499.47 60.08,-499.46"/>
</g>
<!-- kivymd&#45;&gt;notes_app_main -->
<g id="edge4" class="edge">
<title>kivymd&#45;&gt;notes_app_main</title><style>.edge>path:hover{stroke-width:8}</style>
<path fill="none" stroke="black" d="M53.55,-452.95C50.95,-432.3 49.87,-397.72 66.58,-374.85 90.05,-342.71 119.31,-365.83 148.58,-338.85"/>
<path fill="none" stroke="black" d="M148.58,-337.85C174.18,-312.74 155.76,-293.29 167.58,-259.43 170.97,-249.69 251.3,-99.58 245.58,-91"/>
<path fill="none" stroke="black" d="M245.58,-89C224.44,-58.6 185.54,-39.66 157.34,-29.26"/>
<polygon fill="#06ef06" stroke="black" points="158.45,-25.94 147.86,-25.94 156.13,-32.55 158.45,-25.94"/>
</g>
<!-- kivymd&#45;&gt;notes_app_view_notes_view -->
<g id="edge5" class="edge">
<title>kivymd&#45;&gt;notes_app_view_notes_view</title><style>.edge>path:hover{stroke-width:8}</style>
<path fill="none" stroke="black" d="M148.58,-337.85C161.69,-325.76 177.49,-314.04 191.5,-304.46"/>
<polygon fill="#06ef06" stroke="black" points="193.6,-307.27 199.96,-298.79 189.7,-301.46 193.6,-307.27"/>
</g>
</g>
</svg>
